<svg xmlns="http://www.w3.org/2000/svg" width="85" height="102" viewBox="0 0 85 102">
    <g fill="none" fill-rule="nonzero">
        <path fill="#EA178D" d="M28.61 40h-9.138C8.717 39.997 0 31.279 0 20.525V0h14.004A25.98 25.98 0 0 1 40 25.974v2.614A11.388 11.388 0 0 1 28.61 40zM35.926 44.66a4.756 4.756 0 0 1 3.421 1.22 4.727 4.727 0 0 1 1.554 3.276c.428 8.726-6.32 16.146-15.073 16.572a4.743 4.743 0 0 1-4.974-4.497c-.428-8.725 6.32-16.145 15.072-16.572z"/>
        <path fill="#5C22FF" d="M56.389 40h9.136C76.281 40 85 31.28 85 20.525V0H70.998A25.974 25.974 0 0 0 45 25.974v2.614A11.389 11.389 0 0 0 56.389 40zM59.091 65.714a15.886 15.886 0 0 1-10.978-5.174 15.79 15.79 0 0 1-4.094-11.398 4.743 4.743 0 0 1 4.974-4.497c8.753.427 15.5 7.847 15.073 16.572a4.743 4.743 0 0 1-4.975 4.497z"/>
        <path fill="#1C0D4F" d="M9.887 80H0v22h5.183V83.93h4.399c2.401 0 3.434 1.412 3.434 3.012s-1.033 3.024-3.434 3.024H5.6l2.202 3.924h2.11c5.12 0 8.088-2.921 8.088-6.948C18 82.916 15.007 80 9.887 80z"/>
        <path fill="#1C0D4F" d="M26 84c-5.242 0-9 3.807-9 9s3.758 9 9 9 9-3.807 9-9-3.758-9-9-9zm0 13.848c-2.538 0-4.292-1.97-4.292-4.848 0-2.879 1.723-4.88 4.292-4.88s4.292 1.976 4.292 4.88-1.754 4.848-4.292 4.848zM52.578 84l-2.7 9.875L46.997 84h-4.03l-2.828 9.875L37.44 84H33l5.234 16h3.847l2.954-9.967L47.937 100h3.88L57 84zM68.625 95.803c-.354 1.493-1.54 2.252-3.335 2.252-2.248 0-3.689-1.524-4.008-3.976h11.62c.034-.383.069-.903.069-1.562 0-3.983-2.277-8.517-7.983-8.517C59.498 84 57 88.534 57 92.969c0 4.434 2.824 9.031 8.308 9.031 3.974 0 7.053-2.42 7.692-6.197h-4.375zM65 87.531a3.202 3.202 0 0 1 2.432.973 3.742 3.742 0 0 1 1.054 2.558H61.34c.39-2.452 1.61-3.531 3.66-3.531zM83.233 84c-1.884 0-3.062.667-3.898 2.669V84H75v16h4.335v-7.776c0-2.732.96-4.537 3.096-4.537H85V84h-1.767z"/>
    </g>
</svg>
